<svg width="17" height="17" viewBox="0 0 17 17" fill="none" xmlns="http://www.w3.org/2000/svg">
<path d="M16.6187 13.435L13.9934 10.8093C13.4704 10.2885 12.6045 10.3043 12.0633 10.8456L10.7406 12.168C10.6571 12.122 10.5706 12.0739 10.4796 12.0228C9.64438 11.56 8.50119 10.9257 7.29822 9.72184C6.09168 8.51545 5.45676 7.37049 4.99254 6.5347C4.94355 6.44615 4.89662 6.36078 4.85027 6.27971L5.73798 5.39331L6.17441 4.95635C6.71639 4.41422 6.73133 3.54849 6.20963 3.02615L3.58425 0.400181C3.06254 -0.121428 2.19617 -0.105604 1.6542 0.436518L0.914273 1.18069L0.934493 1.20076C0.686387 1.51734 0.479062 1.88247 0.324777 2.27621C0.182556 2.65101 0.0940092 3.00866 0.053521 3.36705C-0.293144 6.24098 1.02016 8.86753 4.58429 12.4317C9.511 17.3581 13.4813 16.9859 13.6526 16.9678C14.0256 16.9232 14.3831 16.834 14.7464 16.6929C15.1368 16.5405 15.5016 16.3334 15.818 16.0859L15.8342 16.1002L16.5838 15.3662C17.1246 14.8242 17.1402 13.9581 16.6187 13.435Z" fill="black"/>
</svg>
