<svg width="31" height="17" viewBox="0 0 31 17" fill="none" xmlns="http://www.w3.org/2000/svg">
<path fill-rule="evenodd" clip-rule="evenodd" d="M26.6498 10.7727C27.6429 11.7423 28.6911 12.6546 29.5817 13.7219C29.9752 14.1962 30.3477 14.6857 30.6327 15.2361C31.0365 16.0186 30.6707 16.8797 29.9691 16.9265L25.6076 16.9245C24.4827 17.0178 23.5853 16.565 22.8308 15.7958C22.2269 15.1808 21.6677 14.5262 21.087 13.8903C20.849 13.6304 20.5998 13.3859 20.3022 13.1926C19.7068 12.8061 19.19 12.9245 18.8497 13.5455C18.5032 14.1771 18.4246 14.8764 18.3906 15.5803C18.3438 16.6074 18.0334 16.8774 17.0017 16.9244C14.797 17.0284 12.7046 16.6948 10.7608 15.5826C9.04707 14.6021 7.71815 13.2179 6.56148 11.6508C4.30941 8.59946 2.58478 5.24649 1.03474 1.79959C0.685843 1.023 0.941002 0.606125 1.79786 0.59137C3.22071 0.56373 4.64336 0.565698 6.06788 0.589404C6.64617 0.597863 7.02901 0.929549 7.2523 1.47587C8.0221 3.36871 8.96405 5.16957 10.1464 6.83883C10.4613 7.28324 10.7823 7.72765 11.2395 8.04045C11.7453 8.3868 12.1304 8.27201 12.3684 7.70857C12.5194 7.35131 12.5855 6.9665 12.6195 6.58386C12.7322 5.26745 12.7471 3.95329 12.5494 2.64149C12.428 1.8228 11.9668 1.29281 11.1499 1.13789C10.733 1.0589 10.7951 0.903778 10.997 0.665833C11.3475 0.255454 11.6772 0 12.3345 0H17.2637C18.0397 0.153154 18.212 0.50176 18.3183 1.28258L18.3225 6.75787C18.314 7.06015 18.4735 7.95714 19.0179 8.15721C19.4537 8.29964 19.7409 7.95104 20.0024 7.67473C21.1826 6.42215 22.0249 4.94186 22.7773 3.40904C23.1113 2.73504 23.3984 2.03507 23.6767 1.3357C23.8829 0.816725 24.2064 0.561369 24.791 0.572681L29.535 0.57691C29.6757 0.57691 29.818 0.578977 29.9543 0.602289C30.7537 0.738525 30.9727 1.08241 30.7258 1.86303C30.3368 3.08778 29.5799 4.10841 28.8398 5.13377C28.0486 6.22847 27.2025 7.2857 26.4179 8.3869C25.6971 9.39248 25.7544 9.89936 26.6498 10.7727Z" fill="white"/>
</svg>
