<svg width="27" height="26" viewBox="0 0 27 26" fill="none" xmlns="http://www.w3.org/2000/svg">
<path d="M26.167 12.5033C26.167 19.4082 20.5259 25.0058 13.5658 25.0058C11.357 25.0058 9.2822 24.4409 7.47605 23.4516L0.5 25.667L2.77402 18.9571C1.62738 17.0739 0.967023 14.8627 0.967023 12.5025C0.96786 5.59758 6.60728 0 13.5674 0C20.5267 0.00167392 26.167 5.59841 26.167 12.5033ZM13.5649 1.99363C7.72379 1.99363 2.97237 6.70906 2.97237 12.5058C2.97237 14.8058 3.72229 16.935 4.99028 18.6675L3.66789 22.5703L7.73718 21.2772C9.4111 22.3752 11.4139 23.0147 13.5649 23.0147C19.4061 23.0147 24.1591 18.3001 24.1591 12.5033C24.1608 6.70906 19.4069 1.99363 13.5649 1.99363ZM19.9291 15.3833C19.8505 15.2569 19.6446 15.1799 19.3366 15.0259C19.0294 14.8719 17.5087 14.1312 17.2266 14.0308C16.942 13.9278 16.7362 13.8759 16.5303 14.1831C16.3269 14.4903 15.7343 15.1799 15.5527 15.3858C15.3727 15.5909 15.1928 15.6168 14.884 15.4653C14.5751 15.3096 13.5791 14.9882 12.399 13.9446C11.4809 13.131 10.8607 12.1292 10.6816 11.822C10.5 11.5157 10.6632 11.35 10.8163 11.1977C10.9544 11.0596 11.1252 10.8394 11.28 10.6595C11.4349 10.4812 11.4859 10.3548 11.5889 10.1498C11.6901 9.94474 11.6391 9.76647 11.5629 9.61163C11.4859 9.45763 10.8691 7.9511 10.6105 7.33761C10.3535 6.72496 10.0966 6.82623 9.91578 6.82623C9.73584 6.82623 9.52994 6.80112 9.32405 6.80112C9.11816 6.80112 8.78338 6.87561 8.50132 7.18278C8.21927 7.48994 7.42081 8.23065 7.42081 9.73885C7.42081 11.2487 8.52643 12.7042 8.68127 12.9084C8.83694 13.1118 10.8189 16.3081 13.9583 17.5351C17.0994 18.7613 17.0994 18.352 17.6652 18.3001C18.2326 18.2482 19.4931 17.5594 19.7492 16.8446C20.007 16.1265 20.007 15.5113 19.9291 15.3833Z" fill="white"/>
</svg>
